<?xml version="1.0" standalone="no"?>
<!DOCTYPE svg PUBLIC "-//W3C//DTD SVG 20010904//EN"
 "http://www.w3.org/TR/2001/REC-SVG-20010904/DTD/svg10.dtd">
<svg version="1.0" xmlns="http://www.w3.org/2000/svg"
 width="300.000000pt" height="300.000000pt" viewBox="0 0 300.000000 300.000000"
 preserveAspectRatio="xMidYMid meet">
<metadata>
Created by potrace 1.11, written by Peter Selinger 2001-2013
</metadata>
<g transform="translate(0.000000,300.000000) scale(0.100000,-0.100000)"
fill="#000000" stroke="none">
<path d="M615 2908 c-73 -27 -150 -93 -185 -159 -41 -78 -238 -790 -274 -989
-15 -84 -39 -272 -50 -400 -6 -63 -3 -58 58 115 180 509 241 638 539 1130 79
130 140 218 173 251 l52 51 -66 7 c-98 9 -213 6 -247 -6z"/>
<path d="M1625 2771 c309 -119 405 -160 570 -246 164 -85 540 -298 637 -361
l67 -43 7 37 c4 20 8 73 8 117 1 63 -4 91 -23 132 -26 58 -100 134 -152 156
-94 39 -803 218 -995 251 -101 18 -309 46 -333 46 -9 0 88 -40 214 -89z"/>
<path d="M1215 2359 c-121 -21 -220 -38 -221 -38 -1 -1 -4 -103 -7 -228 -6
-250 -15 -301 -80 -469 -63 -164 -156 -334 -313 -577 -46 -70 -82 -133 -80
-140 3 -6 7 -24 10 -40 15 -66 119 -143 246 -181 90 -28 255 -46 415 -46 368
0 660 79 914 247 125 83 219 181 267 278 34 69 39 90 42 161 4 87 -7 123 -51
165 -65 63 -218 96 -401 86 l-111 -6 75 29 c323 121 479 264 510 468 9 57 9
76 -3 105 -44 105 -335 241 -476 222 -158 -22 -263 -88 -490 -309 -62 -61
-111 -102 -107 -91 26 74 91 377 84 393 -2 5 -102 -9 -223 -29z m796 -191 c52
-28 95 -52 97 -54 6 -4 -50 -108 -88 -164 -21 -31 -78 -94 -127 -140 -145
-137 -295 -215 -465 -241 l-74 -12 20 -71 19 -71 236 0 c130 0 252 -3 272 -8
30 -6 41 -16 63 -56 32 -60 33 -108 2 -183 -50 -122 -190 -278 -296 -330 -133
-64 -289 -60 -508 14 -68 23 -130 47 -138 53 -27 19 77 334 182 550 133 274
292 474 510 643 45 35 184 122 195 122 3 0 48 -23 100 -52z"/>
<path d="M2746 1271 c-96 -230 -542 -1109 -586 -1156 -12 -13 -18 -25 -13 -28
4 -2 43 -8 85 -12 133 -12 232 32 295 131 27 42 43 99 112 409 88 399 164 766
159 770 -2 1 -25 -50 -52 -114z"/>
<path d="M67 812 c-7 -123 -2 -162 29 -227 22 -47 88 -116 133 -140 68 -35
1146 -276 1230 -275 9 0 -69 36 -174 80 -223 94 -449 205 -818 402 -283 152
-321 177 -366 238 l-28 39 -6 -117z"/>
</g>
</svg>
